<svg width="271" height="232" viewBox="0 0 271 232" fill="none" xmlns="http://www.w3.org/2000/svg">
<path fill-rule="evenodd" clip-rule="evenodd" d="M127.598 2.17984C118.15 6.10809 114.276 17.8636 119.34 27.2275C122.8 33.6253 129.169 37.1236 137.356 37.1236C146.959 37.1236 155.913 28.9426 155.913 20.1677C155.913 11.839 151.602 4.81814 144.824 2.11007C137.734 -0.721324 134.544 -0.708345 127.598 2.17984ZM89.7999 38.3405C84.1387 57.6459 82.6589 69.3852 84.697 78.827C88.0825 94.5173 92.914 104.699 101.111 113.415C107.965 120.706 123.578 131.174 127.657 131.218C128.451 131.226 125.259 127.214 120.565 122.304C115.371 116.868 110.589 109.724 108.35 104.05C104.566 94.4621 104.517 90.8276 107.775 61.7251C108.942 51.2935 105.163 40.3785 98.7008 35.5189C92.7612 31.0519 91.8533 31.3407 89.7999 38.3405ZM174.147 35.4783C171.693 37.3232 168.459 42.4959 166.835 47.1706C164.355 54.3083 164.211 57.0439 165.857 65.59C170.67 90.5631 166.673 107.191 152.228 122.304C147.534 127.214 144.342 131.226 145.137 131.218C145.929 131.209 150.486 129.06 155.259 126.443C174.999 115.617 189.933 91.0872 189.811 69.6854C189.762 60.7207 182.761 33.5117 180.304 32.728C179.338 32.4198 176.567 33.6578 174.147 35.4783ZM41.136 37.3491C41.7486 39.4552 44.1788 49.5769 46.5359 59.8396C52.0122 83.6817 60.1139 99.6722 72.9247 111.921C83.3682 121.906 101.194 131.101 112.639 132.408L119.427 133.183L110.85 127.512C93.4146 115.981 84.7258 102.505 79.4379 78.7864C74.7388 57.7108 73.1266 53.7485 66.3165 46.5426C59.654 39.4893 54.4526 36.4908 45.7825 34.7043C40.3248 33.5799 40.0788 33.7194 41.136 37.3491ZM221.511 36.2458C207.119 41.1524 198.885 53.0443 194.79 74.8371C190.176 99.398 179.581 116.287 161.42 128.032L153.367 133.24L160.78 132.365C182.48 129.805 207.811 109.867 218.28 87.1086C221.25 80.6508 222.699 75.5948 229.738 47.1333C233.475 32.0255 233.56 32.1374 221.511 36.2458ZM119.737 59.7244C116.425 63.2308 112.903 68.8904 111.912 72.2994C107.473 87.584 111.943 107.475 122.166 117.934C128.528 124.442 129.157 124.429 126.289 117.847C120.576 104.731 121.332 96.1788 130.299 72.5655C133.132 65.1065 133.442 62.4471 131.956 58.368C129.544 51.7543 127 52.0367 119.737 59.7244ZM145.915 60.7937C141.349 66.3462 141.403 70.9721 146.155 81.4442C150.918 91.939 151.253 109.786 146.835 117.847C143.309 124.283 144.22 124.535 149.892 118.687C163.198 104.967 166.69 82.494 158.034 66.2877C155.468 61.4817 152.497 57.3003 151.431 56.9953C150.367 56.6918 147.886 58.4004 145.915 60.7937ZM34.3445 110.415C30.9522 111.984 31.6598 112.927 45.3124 125.052C65.042 142.571 79.0662 149.026 97.4807 149.063C106.945 149.083 121.015 145.615 126.21 141.984C129.303 139.821 128.94 139.583 121.088 138.629C104.406 136.599 92.88 132.336 78.7608 122.979C71.0919 117.895 62.4422 112.562 59.5386 111.128C53.6618 108.222 39.9226 107.832 34.3445 110.415ZM215.346 110.328C213.033 111.209 207.305 114.688 202.618 118.054C185.436 130.402 173.187 135.448 151.67 139.049L143.185 140.469L151.67 144.285C162.73 149.258 179.072 150.287 191.559 146.795C204.933 143.057 214.939 136.935 229.635 123.498C242.488 111.747 242.517 111.702 238.144 110.112C232.63 108.108 220.871 108.218 215.346 110.328ZM59.9611 147.567C58.6171 149.646 61.9806 152.2 74.693 158.752C91.6616 167.497 110.583 164.773 123.578 151.713C126.795 148.481 128.665 145.836 127.735 145.836C126.805 145.836 125.32 146.477 124.433 147.259C123.547 148.041 118.693 149.964 113.648 151.53C102.475 154.997 86.9116 154.116 72.0677 149.174C60.3056 145.257 61.3629 145.398 59.9611 147.567ZM149.143 151.533C157.572 159.849 167.001 163.688 178.935 163.663C187.484 163.645 190.848 162.664 201.21 157.17C207.923 153.61 213.886 149.969 214.462 149.078C216.098 146.547 206.404 147.155 198.128 150.103C186.486 154.249 163.862 153.91 153.576 149.437C142.664 144.691 142.353 144.837 149.143 151.533ZM201.866 181.765C201.793 183.232 200.397 184.922 198.763 185.524C195.934 186.566 195.934 186.694 198.763 188.213C200.397 189.089 201.782 191.049 201.839 192.566C201.919 194.583 202.36 194.343 203.482 191.674C204.327 189.665 205.997 188 207.193 187.971C208.695 187.935 208.534 187.307 206.674 185.943C205.193 184.856 203.535 182.871 202.99 181.533C202.163 179.501 201.978 179.539 201.866 181.765ZM101.608 187.526C95.2457 189.701 92.7035 199.022 97.0004 204.417C98.1408 205.849 102.237 208.563 106.103 210.449C118.872 216.676 121.309 221.109 115.184 226.965C110.424 231.516 105.577 231.01 99.6495 225.342C96.8494 222.665 94.236 220.474 93.8406 220.474C91.8058 220.474 93.6097 224.333 97.2889 227.849C103.077 233.384 113.714 233.384 119.503 227.849C127.006 220.677 123.891 213.291 110.678 206.91C99.249 201.391 95.9313 192.634 104.138 189.65C109.278 187.783 113.397 189 117.19 193.507C118.758 195.373 120.667 196.3 121.433 195.568C122.196 194.836 120.677 192.474 118.059 190.319C113.555 186.613 107.361 185.562 101.608 187.526ZM8.24935 207.088C4.22061 217.575 0.585574 227.067 0.173196 228.182C-0.239181 229.298 0.110407 230.21 0.950435 230.21C1.79216 230.21 3.65889 227.108 5.09966 223.314C7.60278 216.726 8.06097 216.397 15.3718 215.933L23.0237 215.449L26.584 223.64C28.5424 228.146 30.9505 231.832 31.9364 231.832C32.9207 231.832 33.7438 231.284 33.7658 230.616C33.8863 226.858 19.0034 188.023 17.4438 188.023C16.4171 188.023 12.2798 196.602 8.24935 207.088ZM66.3945 193.113C65.2287 194.241 64.2733 196.051 64.2733 197.137C64.2733 198.222 63.3195 199.478 62.152 199.929C60.455 200.583 60.455 200.773 62.152 200.875C63.6674 200.966 64.2733 204.847 64.2733 214.471C64.2733 228.792 65.653 231.832 72.1492 231.832C77.3047 231.832 78.8592 228.949 74.0566 228.297C70.4691 227.81 70.1806 226.893 69.7224 214.511C69.2523 201.805 69.3949 201.216 73.1165 200.535C76.9076 199.84 76.9127 199.817 73.2946 199.602C70.6676 199.446 69.4339 198.172 69.0521 195.222C68.621 191.881 68.0984 191.466 66.3945 193.113ZM132.579 193.132C131.413 194.249 130.457 196.051 130.457 197.137C130.457 198.222 129.504 199.478 128.336 199.929C126.639 200.583 126.639 200.773 128.336 200.875C129.843 200.966 130.457 204.726 130.457 213.869C130.457 223.4 131.148 227.393 133.123 229.283C136.129 232.157 141.602 232.66 143.185 230.21C143.762 229.317 142.744 228.587 140.921 228.587C136.522 228.587 135.548 225.621 135.548 212.229C135.548 201.703 135.786 200.997 139.367 200.89C142.944 200.783 142.973 200.697 139.83 199.522C137.985 198.833 136.076 196.657 135.587 194.687C134.878 191.818 134.276 191.508 132.579 193.132ZM181.677 195.73C179.513 198.63 178.558 201.004 179.556 201.004C180.696 201.004 181.368 206.003 181.368 214.471C181.368 228.792 182.748 231.832 189.244 231.832C194.4 231.832 195.954 228.949 191.151 228.297C187.564 227.81 187.275 226.893 186.817 214.511C186.347 201.805 186.49 201.216 190.211 200.535C194.002 199.84 194.007 199.817 190.389 199.602C187.681 199.441 186.541 198.18 186.147 194.919L185.611 190.457L181.677 195.73ZM21.0907 209.701C22.1701 213.809 21.9308 213.984 15.2496 213.984H8.28499L11.6722 205.466C13.5339 200.781 15.1206 196.582 15.197 196.136C15.4244 194.817 19.8706 205.053 21.0907 209.701ZM49.504 200.2C47.1791 201.756 45.4397 202.058 44.7694 201.021C44.1856 200.119 42.609 199.381 41.2633 199.381C37.7844 199.381 37.6758 229.444 41.1496 230.718C42.9552 231.381 43.6612 228.878 44.284 219.592C45.1665 206.446 47.2623 202.626 53.5922 202.626C56.0614 202.626 57.4937 201.839 57.0965 200.7C56.0461 197.689 53.5039 197.522 49.504 200.2ZM154.64 200.191C151.607 201.443 149.125 203.6 149.125 204.982C149.125 208.563 152.067 208.088 154.27 204.151C155.589 201.797 157.486 200.958 160.693 201.312C164.45 201.727 165.246 202.628 165.246 206.465C165.246 210.494 164.228 211.476 157.637 213.804C148.21 217.134 144.977 223.309 149.927 228.539C153.386 232.193 157.791 232.722 162.921 230.098C165.404 228.826 166.982 228.894 168.82 230.353C170.721 231.862 171.807 231.888 173.294 230.466C174.782 229.043 174.765 228.587 173.222 228.587C171.81 228.587 171.186 224.666 171.186 215.805C171.186 207.526 170.439 202.453 169.065 201.401C165.049 198.33 160.142 197.917 154.64 200.191ZM221.005 199.368C215.343 201.552 211.915 207.554 211.915 215.281C211.915 220.927 212.911 223.299 216.875 227.09C222.713 232.671 228.398 233.131 234.533 228.518C243.747 221.586 241.775 204.221 231.3 200.035C228.165 198.782 225.384 197.805 225.121 197.861C224.858 197.917 223.006 198.596 221.005 199.368ZM256.278 200.325C253.342 201.507 250.946 201.776 250.946 200.926C250.946 200.075 249.773 199.381 248.34 199.381C246.14 199.381 245.808 201.839 246.218 215.07C246.551 225.832 247.369 230.969 248.825 231.43C250.405 231.931 250.946 228.764 250.946 219.024C250.946 207.074 251.291 205.73 254.949 203.437C257.152 202.058 260.212 201.391 261.753 201.958C265.143 203.202 266.067 206.704 266.633 220.474C266.873 226.275 267.832 231.021 268.765 231.021C271.136 231.021 271.923 204.474 269.629 201.833C266.761 198.529 262.067 197.999 256.278 200.325ZM200.399 215.07C200.731 225.832 201.549 230.969 203.005 231.43C204.609 231.938 205.126 228.107 205.126 215.741C205.126 202.109 204.692 199.381 202.52 199.381C200.32 199.381 199.988 201.839 200.399 215.07ZM233.569 208.075C236.196 215.771 233.815 226.064 228.815 228.623C226.097 230.014 224.673 229.575 221.236 226.29C212.931 218.349 217.062 200.225 226.928 201.317C230.47 201.708 231.887 203.15 233.569 208.075ZM164.299 226.267C161.713 229.246 156.895 229.241 154.306 226.257C151.612 223.153 154.455 218.067 160.622 214.961C165.211 212.649 165.25 212.675 165.781 218.289C166.074 221.401 165.408 224.99 164.299 226.267Z" fill="black"/>
</svg>
